<?xml version="1.0" encoding="UTF-8" standalone="no"?>
<!-- Created with Inkscape (http://www.inkscape.org/) -->

<svg
   width="1514.702"
   height="886.57483"
   version="1.1"
   viewBox="0 0 1514.702 886.57483"
   id="svg878"
   xmlns="http://www.w3.org/2000/svg"
   xmlns:svg="http://www.w3.org/2000/svg"
   xmlns:rdf="http://www.w3.org/1999/02/22-rdf-syntax-ns#"
   xmlns:cc="http://creativecommons.org/ns#"
   xmlns:dc="http://purl.org/dc/elements/1.1/">
  <defs
     id="defs882" />
  <metadata
     id="metadata870">
    <rdf:RDF>
      <cc:Work
         rdf:about="">
        <dc:format>image/svg+xml</dc:format>
        <dc:type
           rdf:resource="http://purl.org/dc/dcmitype/StillImage" />
      </cc:Work>
    </rdf:RDF>
  </metadata>
  <g
     style="fill:#000000"
     id="g1036"
     transform="matrix(3.2714939,0,0,3.2714939,0.00128866,-314.06341)">
    <g
       id="g1023">
	<path
   d="m 460.387,136.676 c -8.356,-20.176 -34.258,-26.559 -54.514,-28.36 -26.138,-2.324 -60.227,1.072 -98.591,9.825 -0.377,0.086 -0.736,0.208 -1.086,0.345 C 284.008,103.781 258.225,96 231.46,96 166.049,96 111.315,142.59 98.698,204.328 25.712,249.967 -10.226,295.521 2.534,326.324 c 7.946,19.186 32.361,29.099 71.13,29.098 6.981,0 14.434,-0.322 22.332,-0.969 18.778,-1.538 39.281,-4.886 60.85,-9.857 22.162,14.65 47.91,22.404 74.614,22.404 64.423,0 119.957,-45.44 132.761,-108.307 18.755,-11.731 35.61,-23.855 49.968,-36.039 39.601,-33.607 55.576,-63.338 46.198,-85.978 z M 231.46,111 c 24.476,0 48.033,7.293 68.126,21.092 18.821,12.924 33.444,30.697 42.465,51.517 -1.356,2.009 -7.336,9.016 -31.102,22.768 -20.038,11.597 -46.646,24.433 -74.923,36.146 -28.275,11.712 -56.167,21.45 -78.536,27.42 -26.586,7.094 -35.751,6.35 -38.106,5.89 C 113.8,261.73 110.961,246.821 110.961,231.501 110.96,165.056 165.016,111 231.46,111 Z m 0,241 c -18.84,0 -37.139,-4.345 -53.737,-12.634 27.787,-7.503 56.929,-17.471 86.164,-29.581 29.251,-12.116 56.921,-25.683 81.886,-40.034 C 329.599,318.244 283.829,352 231.46,352 Z M 404.484,211.217 c -35.77,30.354 -87.739,60.438 -146.337,84.711 -58.597,24.271 -116.618,39.747 -163.375,43.575 -42.724,3.499 -72.023,-3.575 -78.38,-18.919 -7.352,-17.748 14.839,-54.049 79.794,-96.825 -0.145,2.563 -0.226,5.142 -0.226,7.741 0,2.955 0.102,5.895 0.289,8.821 -27.979,19.505 -58.194,46.507 -49.431,67.66 3.244,7.833 11.042,13.031 23.177,15.449 0.495,0.099 0.987,0.146 1.474,0.146 3.504,0 6.637,-2.468 7.348,-6.035 0.81,-4.063 -1.827,-8.012 -5.89,-8.821 -6.725,-1.34 -11.075,-3.641 -12.251,-6.479 -1.526,-3.687 1.481,-10.608 8.048,-18.518 6.6,-7.95 16.762,-17.009 29.673,-26.494 1.648,8.569 4.125,16.959 7.425,25.107 0.235,0.581 0.55,1.101 0.902,1.586 2.333,4.829 7.54,7.223 16.588,7.222 7.641,0 18.018,-1.704 31.692,-5.077 24.065,-5.938 54.877,-16.481 86.761,-29.688 31.884,-13.206 61.127,-27.539 82.343,-40.357 20.775,-12.552 31.1,-21.678 32.936,-29.56 0.763,-1.776 0.846,-3.843 0.064,-5.776 -3.59,-8.868 -8.087,-17.257 -13.379,-25.082 15.79,-2.415 29.346,-3.195 39.624,-2.259 10.296,0.941 17.357,3.713 18.891,7.413 1.563,3.774 -1.399,12.439 -14.403,25.438 -2.929,2.929 -2.93,7.678 -0.002,10.607 1.465,1.465 3.385,2.197 5.305,2.197 1.919,0 3.838,-0.731 5.303,-2.195 16.407,-16.401 22.348,-30.461 17.655,-41.787 -8.752,-21.133 -49.126,-18.898 -82.781,-12.893 -3.638,-4.141 -7.54,-8.058 -11.678,-11.744 66.585,-13.613 116.158,-9.037 124.887,12.034 6.355,15.346 -9.363,41.065 -42.046,68.802 z"
   id="path1013" />

	<path
   d="m 315.85,236.302 c -21.203,11.631 -44.355,22.666 -68.815,32.798 -53.976,22.356 -106.541,37.043 -144.219,40.294 -4.127,0.356 -7.184,3.99 -6.828,8.117 0.338,3.908 3.613,6.855 7.464,6.855 0.216,0 0.435,-0.009 0.653,-0.027 39.146,-3.378 93.334,-18.461 148.67,-41.382 24.962,-10.34 48.61,-21.612 70.29,-33.505 3.631,-1.992 4.96,-6.551 2.968,-10.183 -1.992,-3.63 -6.55,-4.961 -10.183,-2.967 z"
   id="path1015" />

	<path
   d="m 363.06,206.846 c -4.704,3.409 -9.797,6.898 -15.137,10.369 -3.474,2.257 -4.459,6.902 -2.201,10.375 1.437,2.211 3.841,3.414 6.295,3.414 1.401,0 2.818,-0.393 4.08,-1.213 5.553,-3.608 10.856,-7.242 15.766,-10.801 3.354,-2.431 4.103,-7.12 1.671,-10.474 -2.431,-3.355 -7.124,-4.101 -10.474,-1.67 z"
   id="path1017" />

	<path
   d="m 199.458,148.465 c 0.829,0 1.672,-0.139 2.499,-0.431 4.781,-1.689 9.742,-2.972 14.744,-3.811 4.085,-0.686 6.841,-4.553 6.155,-8.638 -0.685,-4.085 -4.557,-6.841 -8.638,-6.155 -5.854,0.982 -11.662,2.483 -17.26,4.461 -3.905,1.38 -5.952,5.664 -4.572,9.57 1.089,3.08 3.982,5.004 7.072,5.004 z"
   id="path1019" />

	<path
   d="m 246.218,144.223 c 19.878,3.335 38.213,13.545 51.628,28.749 1.482,1.681 3.55,2.538 5.627,2.538 1.763,0 3.533,-0.618 4.959,-1.876 3.106,-2.741 3.402,-7.48 0.662,-10.586 -15.686,-17.776 -37.134,-29.716 -60.394,-33.618 -4.084,-0.684 -7.952,2.07 -8.638,6.155 -0.686,4.085 2.071,7.953 6.156,8.638 z"
   id="path1021" />

</g>
  </g>
  <g
     id="g2830"
     transform="translate(-244.83447,-556.7352)">
    <path
       d="M 445.74,1000.3 V 756.99 H 596.59 V 966.24 H 759.61 V 756.99 h 121.75 l -1.307,5.4745 c -2.5392,10.635 -47.071,207.77 -52.49,232.36 -3.0226,13.718 -4.9042,25.533 -4.1815,26.256 0.7227,0.723 30.515,5.3399 66.205,10.26 l 64.891,8.9462 9.8954,-11.577 c 27.937,-32.684 75.421,-33.24 102.84,-1.2047 35.938,41.985 4.7303,107.54 -51.078,107.29 -19.803,-0.087 -35.659,-7.3743 -50.547,-23.231 l -11.784,-12.551 -64.806,9.1844 c -35.644,5.0515 -65.351,9.7291 -66.017,10.395 -2.5401,2.5401 10.5,34.529 20.974,51.451 19.244,31.091 42.436,50.852 76.365,65.064 8.6293,3.6149 16.146,7.0049 16.703,7.5333 0.55756,0.5285 -39.132,0.9609 -88.2,0.9609 h -89.213 v -180.05 h -163.02 v 180.05 h -150.85 z"
       fill="#fff"
       stroke="#ffffff"
       stroke-width="2.4331"
       id="path874"
       style="fill:#c80000;fill-opacity:1" />
    <path
       d="m 1113.7,1241.5 c 1.2712,-1.1737 7.9008,-3.9462 14.732,-6.1611 58.229,-18.879 103.08,-90.97 103.13,-165.77 0.03,-43.193 -12.994,-76.78 -41.351,-106.63 -19.256,-20.271 -39.728,-33.177 -66.904,-42.178 -17.859,-5.9149 -22.878,-6.4619 -60.827,-6.6287 -38.795,-0.17059 -42.686,0.23875 -62.676,6.5945 -11.722,3.727 -22.957,7.4073 -24.967,8.1784 -2.3603,0.90573 -3.2737,0.22951 -2.5802,-1.9102 0.59044,-1.8218 4.5292,-18.367 8.7528,-36.767 l 7.6793,-33.455 h 220.99 v -100.35 l 113.75,1.2124 c 106.04,1.1303 115.07,1.5628 133.21,6.383 50.455,13.403 80.167,40.402 95.377,86.669 5.6162,17.083 6.4237,23.632 6.601,53.528 0.1509,25.428 -0.8842,38.073 -4.0828,49.878 -13.928,51.405 -51.002,87.442 -103.98,101.07 -19.479,5.0099 -65.583,8.1775 -121.05,8.3168 l -41.971,0.1053 v 180.05 h -88.078 c -50.624,0 -87.095,-0.9075 -85.766,-2.1341 z m 261.63,-281.61 c 16.962,-5.037 32.185,-19.719 36.303,-35.012 7.7315,-28.713 -8.2767,-57.752 -36.215,-65.695 -4.8411,-1.3763 -26.594,-3.2014 -48.34,-4.0558 l -39.538,-1.5534 v 113.44 l 37.321,-1.6092 c 22.552,-0.97241 42.524,-3.1542 50.468,-5.5133 z"
       fill="#fff"
       stroke="#ffffff"
       stroke-width="2.4331"
       id="path876"
       style="fill:#c80000;fill-opacity:1" />
  </g>
</svg>
