<?xml version="1.0" encoding="UTF-8" standalone="no"?>
<svg
   width="80"
   height="80"
   fill="currentColor"
   class="bi bi-globe-americas"
   viewBox="0 0 16 16"
   version="1.1"
   id="svg866"
   xmlns="http://www.w3.org/2000/svg"
   xmlns:svg="http://www.w3.org/2000/svg">
  <defs
     id="defs870" />
  <path
     d="M8 0a8 8 0 1 0 0 16A8 8 0 0 0 8 0M2.04 4.326c.325 1.329 2.532 2.54 3.717 3.19.48.263.793.434.743.484q-.121.12-.242.234c-.416.396-.787.749-.758 1.266.035.634.618.824 1.214 1.017.577.188 1.168.38 1.286.983.082.417-.075.988-.22 1.52-.215.782-.406 1.48.22 1.48 1.5-.5 3.798-3.186 4-5 .138-1.243-2-2-3.5-2.5-.478-.16-.755.081-.99.284-.172.15-.322.279-.51.216-.445-.148-2.5-2-1.5-2.5.78-.39.952-.171 1.227.182.078.099.163.208.273.318.609.304.662-.132.723-.633.039-.322.081-.671.277-.867.434-.434 1.265-.791 2.028-1.12.712-.306 1.365-.587 1.579-.88A7 7 0 1 1 2.04 4.327Z"
     id="path864"
     style="stroke:none;stroke-opacity:1;fill:#5050ff;fill-opacity:1" />
  <g
     id="g2028"
     transform="translate(1.3218463,12.802852)">
    <path
       style="fill:#ffffff;fill-opacity:1;stroke:#000000;stroke-width:0.00377953;stroke-linecap:butt;stroke-linejoin:miter;stroke-miterlimit:4;stroke-dasharray:none;stroke-opacity:1"
       d="m 9.1222085,-7.8587403 c -0.5075735,1.1073757 -0.9745619,2.1668151 -1.2860674,3.3960806 -0.1853338,0.7313657 -0.098715,1.4243126 0.1550976,2.1393701 0.1893928,0.53357 1.3612963,0.011641 1.6579997,-0.3405957 0.7995156,-0.9491601 1.7428526,-1.7472966 2.2604026,-2.9373826 0.260588,-0.5992115 0.515543,-0.9973132 -0.03735,-1.6652996 -0.42699,-0.5158764 -1.085765,-1.0192582 -1.830964,-0.8280305 -0.3063732,0.078619 -0.6127468,0.1572385 -0.9191205,0.2358577 z"
       id="path1874" />
    <path
       d="m 9.836043,-5.4888736 c -0.3789189,-0.1977199 -0.9001662,0.051392 -1.1640315,0.5570748 -0.2638654,0.5056828 -0.170056,1.0757313 0.2088629,1.2734512 0.3789189,0.1977199 0.9001663,-0.051392 1.1640316,-0.5570748 0.263865,-0.5056828 0.170056,-1.0757313 -0.208863,-1.2734512"
       id="path1180"
       style="fill:#000000;fill-opacity:1;stroke-width:0.516186" />
    <path
       d="m 8.2204473,-6.8035005 c -0.7197897,1.59702 -0.8720411,2.7513275 -0.8151125,3.5449229 0.033625,0.4588783 0.1368172,0.7933605 0.2365925,1.0183465 a 1.8066521,1.8066521 0 0 0 0.1366638,0.2547147 1.0323726,1.0323726 0 0 0 0.04799,0.068709 0.28390247,0.28390247 0 0 0 0.099125,0.088986 0.28390247,0.28390247 0 0 0 0.1391619,0.030112 1.0323726,1.0323726 0 0 0 0.084087,-0.0027 2.0647452,2.0647452 0 0 0 0.2888543,-0.041413 C 8.6806809,-1.8944194 9.0158004,-2.0077599 9.4122102,-2.2474862 10.096287,-2.6602474 10.953668,-3.44196 11.837328,-4.9156275 l 1.121109,-0.4781633 0.003,-0.00133 a 1.2904658,1.2904658 0 0 0 0.623776,-0.5839623 l 0.787536,-1.5092687 a 0.25809315,0.25809315 0 0 0 -0.34023,-0.3522024 l -0.873024,0.4178061 c -0.128979,0.061955 -0.287722,0.08276 -0.480251,0.081278 -0.123722,-0.00168 -0.235307,-0.010995 -0.35312,-0.020651 l -0.110669,-0.00884 C 11.99734,-7.7339864 11.657783,-8.0316894 11.268796,-8.2346628 10.879809,-8.4376361 10.441392,-8.5458797 10.018847,-8.5171679 Q 9.983591,-8.5611829 9.948971,-8.6019549 C 9.872987,-8.6940041 9.8015193,-8.7802036 9.7293757,-8.8807293 9.6180367,-9.0378057 9.5443033,-9.1799173 9.5213483,-9.321151 l -0.1566472,-0.955088 a 0.25809315,0.25809315 0 0 0 -0.4835061,-0.07762 l -0.7875365,1.5092688 a 1.2904658,1.2904658 0 0 0 -0.1222112,0.8456785 z m 0.3689165,-0.7594508 0.013134,-0.02517 C 8.8092913,-7.9844299 9.1109502,-8.24565 9.4567362,-8.3883584 9.4052047,-8.4525105 9.3541508,-8.5175778 9.3097624,-8.5809137 9.1783282,-8.7641961 9.0535016,-8.9824579 9.011729,-9.2371482 L 8.9806383,-9.4286235 8.5512901,-8.605802 a 0.77427945,0.77427945 0 0 0 -0.073625,0.5059705 z m 3.8419772,0.7267419 c 0.08073,0.3652626 0.039,0.7621167 -0.167792,1.1584256 l -0.01289,0.024712 0.503795,-0.2145508 a 0.77427945,0.77427945 0 0 0 0.373155,-0.350258 l 0.429349,-0.8228215 -0.174605,0.083561 c -0.232807,0.111415 -0.483477,0.1343249 -0.708995,0.1313494 -0.0771,-6.404e-4 -0.159916,-0.00484 -0.242013,-0.010418 m -4.2535299,4.5152002 q -0.029605,-0.050382 -0.064502,-0.128561 c -0.076,-0.1712417 -0.1642724,-0.4472842 -0.1931644,-0.8460518 -0.056391,-0.7979728 0.1220128,-2.1028237 1.1399838,-4.0537069 0.2048836,-0.3926478 0.5245665,-0.5879864 0.88358,-0.6411155 0.3409665,-0.050901 0.7288855,0.026917 1.0862955,0.2134132 0.35741,0.1864966 0.643125,0.4601808 0.796401,0.7689777 0.16199,0.325571 0.184397,0.6988297 -0.02049,1.0914775 -0.998629,1.913815 -1.9662486,2.8086 -2.6605926,3.2276483 -0.3471621,0.2089471 -0.6290547,0.3017356 -0.8167698,0.3423574 q -0.089221,0.019237 -0.1509837,0.026019 z"
       id="path1182"
       style="fill:#000000;fill-opacity:1;stroke-width:0.516186" />
    <path
       d="m 10.678163,-8.7530413 c 0.241871,0.07206 0.481671,0.1704055 0.710029,0.2895628 0.228358,0.1191573 0.446189,0.2596044 0.643645,0.4167844 l -0.150163,-0.9161885 a 0.25809315,0.25809315 0 0 0 -0.366105,-0.1910338 z"
       id="path1184"
       style="fill:#000000;fill-opacity:1;stroke-width:0.516186" />
  </g>
</svg>
