<?xml version="1.0" encoding="UTF-8" standalone="no"?>
<svg
   width="80"
   height="80"
   fill="currentColor"
   class="bi bi-calendar"
   viewBox="0 0 16 16"
   version="1.1"
   id="svg882"
   xmlns="http://www.w3.org/2000/svg"
   xmlns:svg="http://www.w3.org/2000/svg">
  <defs
     id="defs886" />
  <path
     d="M3.5 0a.5.5 0 0 1 .5.5V1h8V.5a.5.5 0 0 1 1 0V1h1a2 2 0 0 1 2 2v11a2 2 0 0 1-2 2H2a2 2 0 0 1-2-2V3a2 2 0 0 1 2-2h1V.5a.5.5 0 0 1 .5-.5M1 4v10a1 1 0 0 0 1 1h12a1 1 0 0 0 1-1V4z"
     id="path880" />
  <g
     style="fill:currentColor"
     id="g1176"
     transform="matrix(0.55721089,0,0,0.5654899,3.5908125,5.0177161)">
    <path
       d="m 6,0.278 a 0.77,0.77 0 0 1 0.08,0.858 7.2,7.2 0 0 0 -0.878,3.46 c 0,4.021 3.278,7.277 7.318,7.277 q 0.792,-10e-4 1.533,-0.16 a 0.79,0.79 0 0 1 0.81,0.316 0.73,0.73 0 0 1 -0.031,0.893 A 8.35,8.35 0 0 1 8.344,16 C 3.734,16 0,12.286 0,7.71 0,4.266 2.114,1.312 5.124,0.06 A 0.75,0.75 0 0 1 6,0.278"
       id="path1164" />
    <path
       d="m 10.794,3.148 a 0.217,0.217 0 0 1 0.412,0 l 0.387,1.162 c 0.173,0.518 0.579,0.924 1.097,1.097 l 1.162,0.387 a 0.217,0.217 0 0 1 0,0.412 L 12.69,6.593 A 1.73,1.73 0 0 0 11.593,7.69 l -0.387,1.162 a 0.217,0.217 0 0 1 -0.412,0 L 10.407,7.69 A 1.73,1.73 0 0 0 9.31,6.593 L 8.148,6.206 a 0.217,0.217 0 0 1 0,-0.412 L 9.31,5.407 A 1.73,1.73 0 0 0 10.407,4.31 Z m 3.069,-3.049 a 0.145,0.145 0 0 1 0.274,0 l 0.258,0.774 c 0.115,0.346 0.386,0.617 0.732,0.732 l 0.774,0.258 a 0.145,0.145 0 0 1 0,0.274 l -0.774,0.258 a 1.16,1.16 0 0 0 -0.732,0.732 l -0.258,0.774 a 0.145,0.145 0 0 1 -0.274,0 L 13.605,3.127 A 1.16,1.16 0 0 0 12.873,2.395 L 12.099,2.137 a 0.145,0.145 0 0 1 0,-0.274 L 12.873,1.605 C 13.219,1.49 13.49,1.219 13.605,0.873 Z"
       id="path1166" />
  </g>
</svg>
